<svg width="64" height="64" viewBox="0 0 64 64" fill="none" xmlns="http://www.w3.org/2000/svg">
<path d="M32 62C48.5685 62 62 48.5685 62 32C62 15.4315 48.5685 2 32 2C15.4315 2 2 15.4315 2 32C2 48.5685 15.4315 62 32 62Z" fill="#FECDD3"/>
<path d="M23 45C26.3137 45 29 42.9853 29 40.5C29 38.0147 26.3137 36 23 36C19.6863 36 17 38.0147 17 40.5C17 42.9853 19.6863 45 23 45Z" fill="#F9F4F4"/>
<path fill-rule="evenodd" clip-rule="evenodd" d="M17.0834 58.0419C17.0285 57.414 17 56.769 17 56.1111C17 49.7292 19.6863 44.5556 23 44.5556C26.3137 44.5556 29 49.7292 29 56.1111C29 56.769 28.9715 57.414 28.9166 58.0419C27.0636 58.6627 25.0727 59 23 59C20.9273 59 18.9364 58.6627 17.0834 58.0419ZM20.9675 36.4943C20.9675 36.4943 19.7944 33.896 18.4823 33C18.4823 33 17.0707 36.5681 17.8185 39.528" fill="#1E1E1E"/>
<path fill-rule="evenodd" clip-rule="evenodd" d="M26 36.747C26 36.747 27.0451 33.9608 28.214 33C28.214 33 29.4715 36.8261 28.8054 40" fill="#1E1E1E"/>
<circle cx="21" cy="40" r="1" fill="#AAC68C"/>
<circle cx="25" cy="40" r="1" fill="#AAC68C"/>
<path d="M41 45C44.3137 45 47 42.9853 47 40.5C47 38.0147 44.3137 36 41 36C37.6863 36 35 38.0147 35 40.5C35 42.9853 37.6863 45 41 45Z" fill="#1E1E1E"/>
<path fill-rule="evenodd" clip-rule="evenodd" d="M35.0834 58.0419C35.0285 57.414 35 56.769 35 56.1111C35 49.7292 37.6863 44.5556 41 44.5556C44.3137 44.5556 47 49.7292 47 56.1111C47 56.769 46.9715 57.414 46.9166 58.0419C45.0636 58.6626 43.0727 59 41 59C38.9273 59 36.9364 58.6626 35.0834 58.0419ZM38.9675 36.4943C38.9675 36.4943 37.7944 33.896 36.4823 33C36.4823 33 35.0707 36.5681 35.8185 39.528" fill="#1E1E1E"/>
<path fill-rule="evenodd" clip-rule="evenodd" d="M43 36.747C43 36.747 44.0451 33.9608 45.214 33C45.214 33 46.4715 36.8261 45.8054 40" fill="#1E1E1E"/>
<circle cx="39" cy="40" r="1" fill="#D8BA48"/>
<circle cx="43" cy="40" r="1" fill="#D8BA48"/>
<path d="M41 18C44.3137 18 47 15.9853 47 13.5C47 11.0147 44.3137 9 41 9C37.6863 9 35 11.0147 35 13.5C35 15.9853 37.6863 18 41 18Z" fill="#C0823D"/>
<path fill-rule="evenodd" clip-rule="evenodd" d="M35.0834 31.0419C35.0285 30.414 35 29.769 35 29.1111C35 22.7292 37.6863 17.5556 41 17.5556C44.3137 17.5556 47 22.7292 47 29.1111C47 29.769 46.9715 30.414 46.9166 31.0419C45.0636 31.6627 43.0727 32 41 32C38.9273 32 36.9364 31.6627 35.0834 31.0419ZM38.9675 9.49432C38.9675 9.49432 37.7944 6.896 36.4823 6C36.4823 6 35.0707 9.56813 35.8185 12.528" fill="#C0823D"/>
<path fill-rule="evenodd" clip-rule="evenodd" d="M43 9.74698C43 9.74698 44.0451 6.96078 45.214 6C45.214 6 46.4715 9.82612 45.8054 13" fill="#C0823D"/>
<circle cx="39" cy="13" r="1" fill="#AAC68C"/>
<circle cx="43" cy="13" r="1" fill="#AAC68C"/>
<path d="M23 18C26.3137 18 29 15.9853 29 13.5C29 11.0147 26.3137 9 23 9C19.6863 9 17 11.0147 17 13.5C17 15.9853 19.6863 18 23 18Z" fill="#9D8E7F"/>
<path fill-rule="evenodd" clip-rule="evenodd" d="M17.0834 31.0419C17.0285 30.414 17 29.769 17 29.1111C17 22.7292 19.6863 17.5556 23 17.5556C26.3137 17.5556 29 22.7292 29 29.1111C29 29.769 28.9715 30.414 28.9166 31.0419C27.0636 31.6626 25.0727 32 23 32C20.9273 32 18.9364 31.6626 17.0834 31.0419ZM20.9675 9.49432C20.9675 9.49432 19.7944 6.896 18.4823 6C18.4823 6 17.0707 9.56813 17.8185 12.528" fill="#9D8E7F"/>
<path fill-rule="evenodd" clip-rule="evenodd" d="M25 9.74698C25 9.74698 26.0451 6.96078 27.214 6C27.214 6 28.4715 9.82612 27.8054 13" fill="#9D8E7F"/>
<circle cx="21" cy="13" r="1" fill="#B4DFFB"/>
<circle cx="25" cy="13" r="1" fill="#B4DFFB"/>
</svg>
