<svg width="256" height="256" viewBox="0 0 256 256" fill="none" xmlns="http://www.w3.org/2000/svg">
<path d="M128 248C194.274 248 248 194.274 248 128C248 61.7258 194.274 8 128 8C61.7258 8 8 61.7258 8 128C8 194.274 61.7258 248 128 248Z" fill="#BAE6FD"/>
<path d="M92 180C105.255 180 116 171.941 116 162C116 152.059 105.255 144 92 144C78.7452 144 68 152.059 68 162C68 171.941 78.7452 180 92 180Z" fill="#F9F4F4"/>
<path fill-rule="evenodd" clip-rule="evenodd" d="M67.3335 232.167C67.1142 229.656 67 227.076 67 224.444C67 198.917 77.7452 178.222 91 178.222C104.255 178.222 115 198.917 115 224.444C115 227.076 114.886 229.656 114.666 232.167C107.254 234.651 99.2908 236 91 236C82.7092 236 74.7458 234.651 67.3335 232.167ZM82.8701 145.977C82.8701 145.977 78.1774 135.584 72.9294 132C72.9294 132 67.2829 146.273 70.2739 158.112" fill="#1E1E1E"/>
<path fill-rule="evenodd" clip-rule="evenodd" d="M104 146.988C104 146.988 108.181 135.843 112.856 132C112.856 132 117.886 147.304 115.222 160" fill="#1E1E1E"/>
<circle cx="84" cy="160" r="4" fill="#AAC68C"/>
<circle cx="100" cy="160" r="4" fill="#AAC68C"/>
<path d="M164 180C177.255 180 188 171.941 188 162C188 152.059 177.255 144 164 144C150.745 144 140 152.059 140 162C140 171.941 150.745 180 164 180Z" fill="#1E1E1E"/>
<path fill-rule="evenodd" clip-rule="evenodd" d="M140.334 232.167C140.114 229.656 140 227.076 140 224.444C140 198.917 150.745 178.222 164 178.222C177.255 178.222 188 198.917 188 224.444C188 227.076 187.886 229.656 187.666 232.167C180.254 234.651 172.291 236 164 236C155.709 236 147.746 234.651 140.334 232.167ZM155.87 145.977C155.87 145.977 151.177 135.584 145.929 132C145.929 132 140.283 146.273 143.274 158.112" fill="#1E1E1E"/>
<path fill-rule="evenodd" clip-rule="evenodd" d="M172 146.988C172 146.988 176.181 135.843 180.856 132C180.856 132 185.886 147.304 183.222 160" fill="#1E1E1E"/>
<circle cx="156" cy="160" r="4" fill="#D8BA48"/>
<circle cx="172" cy="160" r="4" fill="#D8BA48"/>
<path d="M164 72C177.255 72 188 63.9411 188 54C188 44.0589 177.255 36 164 36C150.745 36 140 44.0589 140 54C140 63.9411 150.745 72 164 72Z" fill="#C0823D"/>
<path fill-rule="evenodd" clip-rule="evenodd" d="M140.334 124.167C140.114 121.656 140 119.076 140 116.444C140 90.9166 150.745 70.2222 164 70.2222C177.255 70.2222 188 90.9166 188 116.444C188 119.076 187.886 121.656 187.666 124.167C180.254 126.651 172.291 128 164 128C155.709 128 147.746 126.651 140.334 124.167ZM155.87 37.9773C155.87 37.9773 151.177 27.584 145.929 24C145.929 24 140.283 38.2725 143.274 50.112" fill="#C0823D"/>
<path fill-rule="evenodd" clip-rule="evenodd" d="M172 38.9879C172 38.9879 176.181 27.8431 180.856 24C180.856 24 185.886 39.3045 183.222 52" fill="#C0823D"/>
<circle cx="156" cy="52" r="4" fill="#AAC68C"/>
<circle cx="172" cy="52" r="4" fill="#AAC68C"/>
<path d="M92 72C105.255 72 116 63.9411 116 54C116 44.0589 105.255 36 92 36C78.7452 36 68 44.0589 68 54C68 63.9411 78.7452 72 92 72Z" fill="#9D8E7F"/>
<path fill-rule="evenodd" clip-rule="evenodd" d="M68.3335 124.167C68.1142 121.656 68 119.076 68 116.444C68 90.9166 78.7452 70.2222 92 70.2222C105.255 70.2222 116 90.9166 116 116.444C116 119.076 115.886 121.656 115.666 124.167C108.254 126.651 100.291 128 92 128C83.7092 128 75.7458 126.651 68.3335 124.167ZM83.8701 37.9773C83.8701 37.9773 79.1774 27.584 73.9294 24C73.9294 24 68.2829 38.2725 71.2739 50.112" fill="#9D8E7F"/>
<path fill-rule="evenodd" clip-rule="evenodd" d="M100 38.9879C100 38.9879 104.181 27.8431 108.856 24C108.856 24 113.886 39.3045 111.222 52" fill="#9D8E7F"/>
<circle cx="84" cy="52" r="4" fill="#B4DFFB"/>
<circle cx="100" cy="52" r="4" fill="#B4DFFB"/>
</svg>
