<svg width="64" height="64" viewBox="0 0 64 64" fill="none" xmlns="http://www.w3.org/2000/svg">
<path d="M32 62C48.5685 62 62 48.5685 62 32C62 15.4315 48.5685 2 32 2C15.4315 2 2 15.4315 2 32C2 48.5685 15.4315 62 32 62Z" fill="#FECDD3"/>
<path d="M32 38C37.5228 38 42 34.4183 42 30C42 25.5817 37.5228 22 32 22C26.4772 22 22 25.5817 22 30C22 34.4183 26.4772 38 32 38Z" fill="#C0823D"/>
<path fill-rule="evenodd" clip-rule="evenodd" d="M22.139 60.3417C22.0476 59.255 22 58.1386 22 57C22 45.9543 26.4772 37 32 37C37.5228 37 42 45.9543 42 57C42 58.1386 41.9524 59.255 41.861 60.3417C38.7726 61.4161 35.4545 62 32 62C28.5455 62 25.2274 61.4161 22.139 60.3417ZM28.6125 23.0479C28.6125 23.0479 26.6573 18.5508 24.4706 17C24.4706 17 22.1179 23.1756 23.3641 28.2984" fill="#C0823D"/>
<path fill-rule="evenodd" clip-rule="evenodd" d="M35.0005 23.0479C35.0005 23.0479 36.9557 18.5508 39.1424 17C39.1424 17 41.4951 23.1756 40.2489 28.2984" fill="#C0823D"/>
<circle cx="28.5" cy="28.5" r="1.5" fill="#AAC68C"/>
<circle cx="35.5" cy="28.5" r="1.5" fill="#AAC68C"/>
</svg>
